<svg width="17" height="17" viewBox="0 0 17 17" fill="none" xmlns="http://www.w3.org/2000/svg">
<rect width="17" height="17" fill="white"/>
<g transform="translate(1.7, 1.7) scale(0.8)">
<path fill-rule="evenodd" clip-rule="evenodd" d="M13.4794 2.48429C13.74 2.22366 13.7227 1.79376 13.4229 1.57941C10.1033 -0.793648 5.45951 -0.489887 2.47891 2.49073C0.930036 4.0396 0.104001 6.03758 0.000846675 8.0655C-0.0260788 8.59467 0.595467 8.82546 0.970153 8.45078L4.33425 5.08668C4.58009 4.84084 4.97868 4.84084 5.22452 5.08668C5.47032 5.33253 5.47032 5.73111 5.22452 5.97696L0.589793 10.6116C0.427535 10.7739 0.364588 11.0123 0.438122 11.2297C0.700005 12.0039 1.07657 12.7478 1.56786 13.435C1.7822 13.7348 2.21189 13.7518 2.47252 13.4912L13.4794 2.48429ZM3.34224 14.4019C3.08559 14.6586 3.09783 15.0809 3.3879 15.2991C6.71715 17.803 11.467 17.5397 14.4975 14.5092C16.0463 12.9604 16.8724 10.9624 16.9755 8.93447C17.0025 8.4053 16.3809 8.17451 16.0062 8.54919L12.7917 11.7637C12.5459 12.0095 12.1473 12.0095 11.9015 11.7637C11.6556 11.5178 11.6556 11.1192 11.9015 10.8734L16.3866 6.38828C16.5488 6.22602 16.6118 5.98764 16.5382 5.77021C16.2552 4.93345 15.8382 4.13199 15.287 3.39937C15.0689 3.10925 14.6469 3.09736 14.3902 3.35406L3.34224 14.4019Z" fill="black"/>
</g>
</svg>
