<svg width="24" height="24" viewBox="0 0 24 24" fill="none" xmlns="http://www.w3.org/2000/svg">
    <rect width="24" height="24" fill="white"/>
    <g transform="translate(2.4, 2.4) scale(0.8)">
        <path fillRule="evenodd" clipRule="evenodd" d="M14.3034 11.1351C14.0558 11.2283 13.947 11.5024 14.0285 11.7507L17.0701 21.0258C17.4009 22.0347 16.8385 23.1166 15.8139 23.4424C15.7294 23.4692 15.6443 23.4901 15.5593 23.5053C15.4109 23.5317 15.2612 23.5534 15.1155 23.5918C12.3074 24.3307 9.22272 24.0886 6.43044 22.6842C3.00374 20.9606 0.759461 17.8596 0.038102 14.4168C-0.271802 12.9377 1.36848 12.0437 2.79047 12.6096C5.24307 13.5858 7.9077 14.0689 10.0906 13.0607C10.2282 12.9972 10.2886 12.8407 10.242 12.6983L7.04731 2.95654C6.74633 2.03871 7.18464 1.06041 8.0377 0.64603C8.03776 0.646111 8.0378 0.645988 8.0377 0.64603C8.03767 0.645943 8.03776 0.645602 8.03786 0.645569C8.03871 0.645279 8.0396 0.644989 8.04045 0.644699C8.12424 0.604158 8.21203 0.569054 8.30348 0.539975C8.40539 0.507569 8.50804 0.483868 8.61063 0.468454C11.4771 -0.34261 14.6507 -0.125509 17.5163 1.31584C21.0491 3.0928 23.3251 6.33384 23.9712 9.9041C24.2378 11.3774 22.5995 12.2349 21.1901 11.6746C18.8982 10.7636 16.4444 10.3294 14.3034 11.1351Z" fill="#1774FD"/>
    </g>
</svg>
