<svg width="22" height="21" viewBox="0 0 22 21" fill="none" xmlns="http://www.w3.org/2000/svg">
<path d="M19.3969 0.119581C20.4418 -0.0200671 21.3008 0.854416 21.3008 1.90854L21.3008 2.01024C21.3008 2.94327 20.6152 3.711 19.7314 4.00998C18.6385 4.37965 17.8253 4.92021 17.2917 5.63165C16.5281 6.71346 16.1463 8.52708 16.1463 11.0725L19.1058 11.0725C20.1599 11.0725 21.0144 11.9271 21.0144 12.9812L21.0144 18.232C21.0144 19.2861 20.1599 20.1406 19.1058 20.1406L13.5686 20.1406C12.5145 20.1406 11.6599 19.2861 11.6599 18.232L11.6599 12.5043C11.6599 8.5589 12.3918 5.47256 13.8554 3.24531C15.0379 1.49721 16.8851 0.455304 19.3969 0.119581ZM7.7565 0.263633C8.77016 -0.0256127 9.64085 0.854417 9.64085 1.90854L9.64085 2.01025C9.64085 2.94327 8.95525 3.711 8.07142 4.00998C6.97859 4.37965 6.16538 4.92021 5.6318 5.63165C4.86817 6.71346 4.48635 8.52708 4.48635 11.0725L7.44584 11.0725C8.49996 11.0725 9.3545 11.9271 9.3545 12.9812L9.3545 18.232C9.3545 19.2861 8.49996 20.1406 7.44584 20.1406L1.90869 20.1406C0.854563 20.1406 2.47208e-05 19.2861 2.46287e-05 18.232L2.41279e-05 12.5043C2.3783e-05 8.5589 0.731835 7.02355 2.19546 4.7963C3.38105 3.04369 5.23473 0.983211 7.7565 0.263633Z" fill="url(#paint0_linear_7592_7657)"/>
<defs>
<linearGradient id="paint0_linear_7592_7657" x1="10.6504" y1="20.1406" x2="10.6504" y2="-0.000121139" gradientUnits="userSpaceOnUse">
<stop stop-color="white"/>
<stop offset="0.692708" stop-color="#D7D7D7"/>
</linearGradient>
</defs>
</svg>
